<?xml version="1.0" standalone="no"?><svg xmlns="http://www.w3.org/2000/svg" viewBox="0 0 1440 320" transform="rotate(180)"><path fill="#3437d8" fill-opacity="1" d="M0,96L20,85.3C40,75,80,53,120,58.7C160,64,200,96,240,117.3C280,139,320,149,360,165.3C400,181,440,203,480,197.3C520,192,560,160,600,160C640,160,680,192,720,181.3C760,171,800,117,840,117.3C880,117,920,171,960,165.3C1000,160,1040,96,1080,69.3C1120,43,1160,53,1200,64C1240,75,1280,85,1320,80C1360,75,1400,53,1420,42.7L1440,32L1440,320L1420,320C1400,320,1360,320,1320,320C1280,320,1240,320,1200,320C1160,320,1120,320,1080,320C1040,320,1000,320,960,320C920,320,880,320,840,320C800,320,760,320,720,320C680,320,640,320,600,320C560,320,520,320,480,320C440,320,400,320,360,320C320,320,280,320,240,320C200,320,160,320,120,320C80,320,40,320,20,320L0,320Z"></path></svg>